<svg width="50" height="50" viewBox="0 0 50 50" fill="none" xmlns="http://www.w3.org/2000/svg">
<path d="M24.6588 10C9.84487 10.2716 3.5881 25.464 14.5628 33.9296C14.3741 36.3182 12.8938 39.5802 15.7345 39.9831C17.0767 40.2521 19.3368 37.3306 20.4785 36.5392C29.5551 38.6562 39.0913 33.5124 40.2422 24.9519C41.2446 16.9126 33.8669 9.99221 24.6588 10ZM24.6588 34.8211C18.1091 34.4 20.955 33.3486 16.2748 37.3514C16.323 36.4378 17.1067 33.6151 16.5768 32.8353C13.2818 29.7565 11.549 28.1619 11.2027 24.1033C10.7419 13.5284 25.4425 8.43918 34.0284 15.383C42.7131 22.61 36.7232 34.7158 24.6588 34.8211Z" fill="white"/>
</svg>
