<svg width="22" height="22" viewBox="0 0 22 22" fill="none" xmlns="http://www.w3.org/2000/svg">
<path fill-rule="evenodd" clip-rule="evenodd" d="M6.96866 17.7883C7.19577 17.7883 7.43026 17.8379 7.66687 17.9382C7.92989 18.0502 8.18974 18.158 8.43796 18.2572C9.13195 18.5351 9.49954 19.078 9.50271 19.8258L9.50376 20.0794C9.50588 20.4628 9.50799 20.8589 9.50059 21.2518C10.503 21.2455 11.5107 21.2466 12.4962 21.2518C12.4888 20.8029 12.492 20.3487 12.4941 19.9093L12.4952 19.8015C12.4972 19.4673 12.5826 19.1663 12.7412 18.9135C12.9194 18.6296 13.1901 18.4065 13.5388 18.2657L13.5758 18.2509C13.613 18.2358 13.6504 18.2206 13.688 18.2054C13.8945 18.1217 14.1054 18.0362 14.3109 17.9478C15.0049 17.6499 15.6556 17.7735 16.1922 18.3069L16.3443 18.4579C16.6232 18.7347 16.9115 19.0209 17.1915 19.3083C17.877 18.6174 18.5889 17.9066 19.3083 17.1936C19.003 16.8967 18.6819 16.5746 18.271 16.1573C17.7809 15.6588 17.6562 15.0018 17.9298 14.3532L17.9529 14.2982C18.062 14.038 18.1616 13.8008 18.2583 13.5599C18.5319 12.8754 19.0896 12.4973 19.8269 12.4952L20.1005 12.4941C20.4776 12.492 20.8673 12.491 21.2529 12.4973C21.2466 11.4938 21.2466 10.4872 21.2529 9.50376C20.7607 9.51116 20.2653 9.50799 19.7994 9.50482C19.0917 9.49954 18.534 9.11716 18.2678 8.45592C18.1717 8.21614 18.0618 7.94468 17.9499 7.68483C17.6541 6.99613 17.7756 6.35179 18.2995 5.82153L18.4379 5.6821C18.722 5.39479 19.0167 5.09691 19.3146 4.8096C18.666 4.16843 17.9721 3.47445 17.1957 2.69174C16.8936 3.00229 16.563 3.33291 16.1595 3.72902C15.6619 4.21808 15.0039 4.34167 14.3553 4.06914C14.0912 3.95823 13.8272 3.84732 13.561 3.74064C12.8776 3.466 12.4994 2.90933 12.4973 2.17099L12.4962 1.90375C12.4941 1.52454 12.4931 1.13371 12.4994 0.74605C12.1508 0.751331 11.798 0.750275 11.4568 0.749219C11.1643 0.748162 10.8717 0.748162 10.5791 0.749219C10.2263 0.750275 9.8629 0.751331 9.50271 0.74605C9.50836 1.06936 9.50729 1.39519 9.50624 1.71303C9.50612 1.75137 9.50599 1.7896 9.50588 1.82769L9.50482 2.14775C9.50271 2.92729 9.12984 3.47023 8.39677 3.75965C8.17389 3.84732 7.94362 3.94239 7.71335 4.04274C6.99824 4.35223 6.35813 4.23392 5.80991 3.69099L5.74125 3.62339C5.72109 3.60343 5.70089 3.58344 5.68065 3.56342C5.39234 3.27814 5.09682 2.98573 4.8096 2.68963C4.10083 3.40474 3.38889 4.11562 2.69385 4.80432C3.10475 5.20466 3.43537 5.53527 3.73219 5.84266C4.22864 6.35813 4.34589 6.98028 4.07126 7.64258C3.95823 7.9151 3.84521 8.18762 3.7343 8.4612C3.466 9.11822 2.90617 9.49848 2.19634 9.50165L2.07592 9.50271C2.03907 9.50288 2.0021 9.50307 1.96503 9.50326C1.58767 9.50517 1.19988 9.50713 0.815976 9.50164C0.793357 9.50132 0.770752 9.50097 0.748162 9.50059C0.7545 10.5104 0.7545 11.5181 0.748162 12.4983C1.18019 12.491 1.61749 12.4941 2.04106 12.4962L2.19634 12.4973C2.90617 12.5005 3.46706 12.8807 3.7343 13.5377L3.77655 13.6423C3.86739 13.8652 3.95823 14.0891 4.05224 14.3099C4.35329 15.0134 4.23181 15.6461 3.6931 16.1911C3.50403 16.3823 3.31284 16.5725 3.12165 16.7637C2.97905 16.9063 2.83645 17.0478 2.69491 17.1904C3.3984 17.896 4.10189 18.6005 4.80644 19.3051C4.94481 19.1678 5.08213 19.0294 5.2205 18.891C5.4212 18.6893 5.62295 18.4875 5.82576 18.2879C6.15849 17.9562 6.55143 17.7883 6.96866 17.7883ZM10.9546 15.8852H10.9852C12.2887 15.8852 13.512 15.3835 14.4341 14.4719C15.3637 13.5528 15.8792 12.3233 15.8855 11.0081C15.8919 9.71624 15.3901 8.49195 14.4711 7.56343C13.5521 6.63491 12.3352 6.12047 11.0433 6.11414H11.0201C9.71021 6.11414 8.47641 6.62223 7.54578 7.54547C6.62572 8.45814 6.11656 9.66553 6.11234 10.9448C6.10283 13.6532 8.27571 15.8694 10.9546 15.8852Z" fill="#28E05A"/>
</svg>
