<svg width="28" height="30" viewBox="0 0 28 30" fill="none" xmlns="http://www.w3.org/2000/svg">
<path d="M22.5762 20.6853C22.5762 20.4545 22.5762 20.3141 22.5762 20.1738C22.5762 14.6752 22.5762 9.17794 22.5734 3.67935C22.5734 3.48094 22.565 3.27849 22.5203 3.08684C22.4125 2.61985 22.0109 2.29458 21.517 2.24869C21.3841 2.23654 21.2497 2.23654 21.1168 2.23654C15.342 2.23654 9.56859 2.23654 3.79378 2.23654C3.66085 2.23654 3.52652 2.23654 3.39359 2.24869C2.88006 2.29188 2.48266 2.6185 2.36932 3.10573C2.33014 3.27444 2.32035 3.45395 2.32035 3.62806C2.31755 11.2011 2.31895 18.7742 2.31895 26.3486C2.31895 26.3958 2.31895 26.4417 2.31895 26.4889C2.33294 27.3028 2.7905 27.7509 3.63566 27.7522C6.43141 27.7563 9.22717 27.7536 12.0229 27.7536C12.2538 27.7536 12.4847 27.7455 12.7156 27.7576C12.8191 27.763 12.9506 27.7765 13.0164 27.8386C13.744 28.5242 14.4619 29.2193 15.2356 29.9643C15.0537 29.9765 14.9516 29.99 14.8508 29.99C11.119 29.9913 7.38712 29.9954 3.65525 29.9886C1.49477 29.9846 0.00454764 28.5526 0.00314837 26.4768C-0.00104946 18.8335 -0.00104946 11.189 0.00314837 3.54573C0.00314837 1.72906 1.12816 0.373983 2.89685 0.0514095C3.15711 0.00417074 3.42857 0.00282106 3.69583 0.00282106C9.53081 0.0001217 15.3658 -0.00122798 21.2008 0.00147138C23.4284 0.00282106 24.8934 1.42538 24.8948 3.57947C24.8976 8.45586 24.8934 13.3336 24.9018 18.21C24.9018 18.4583 24.8095 18.6027 24.6234 18.7674C24.0413 19.2816 23.4914 19.8296 22.9275 20.3641C22.8337 20.4532 22.7386 20.5382 22.5762 20.6853Z" fill="white"/>
<path d="M19.1562 27.3487C19.2332 27.2272 19.2878 27.0855 19.3885 26.987C21.5574 24.8869 23.7277 22.7868 25.9133 20.7015C26.1162 20.5072 26.4073 20.3452 26.6829 20.2872C27.1993 20.1819 27.6652 20.4518 27.8835 20.8864C28.1032 21.3251 28.0109 21.8218 27.6135 22.2064C26.0701 23.7005 24.5225 25.1906 22.9749 26.682C21.987 27.6348 21.0005 28.5891 20.0098 29.5406C19.3717 30.1533 18.7449 30.1533 18.1068 29.5392C16.86 28.3394 15.6119 27.1395 14.3735 25.9315C13.9481 25.5172 13.8964 24.9328 14.2154 24.486C14.5233 24.0568 15.1067 23.8773 15.6021 24.0906C15.7854 24.1689 15.9519 24.3011 16.096 24.4388C16.986 25.2864 17.8703 26.1421 18.7505 26.9991C18.8428 27.0896 18.903 27.2124 18.9785 27.319C19.0387 27.3298 19.0975 27.3393 19.1562 27.3487Z" fill="white"/>
<path d="M15.175 19.5028C16.426 19.5028 17.6769 19.5015 18.9293 19.5042C19.6821 19.5055 20.2068 19.9577 20.2208 20.6069C20.2334 21.2655 19.6961 21.7433 18.9293 21.7433C16.4148 21.746 13.9003 21.746 11.3844 21.7433C10.64 21.742 10.1152 21.2736 10.1152 20.6231C10.1152 19.9685 10.6344 19.5069 11.383 19.5042C12.6493 19.5001 13.9129 19.5028 15.175 19.5028Z" fill="white"/>
<path d="M15.1449 13.5077C16.4084 13.5077 17.672 13.505 18.9341 13.509C19.6939 13.5104 20.2116 13.9571 20.2214 14.6077C20.2312 15.2488 19.7023 15.7387 18.9607 15.7414C16.4224 15.7482 13.8841 15.7468 11.3444 15.7414C10.7581 15.7401 10.3384 15.4431 10.1746 14.96C10.0221 14.5105 10.1593 13.999 10.5776 13.7479C10.8099 13.6089 11.1164 13.5252 11.392 13.5198C12.643 13.4942 13.8939 13.5077 15.1449 13.5077Z" fill="white"/>
<path d="M15.1448 9.72861C13.8938 9.72861 12.6429 9.7313 11.3919 9.72726C10.6363 9.72456 10.12 9.27106 10.1172 8.62052C10.1144 7.96592 10.6265 7.49759 11.3807 7.49624C13.9078 7.49084 16.4335 7.49084 18.9606 7.49624C19.7008 7.49759 20.2326 7.98887 20.2228 8.62997C20.213 9.27916 19.6938 9.72591 18.9354 9.72861C17.6719 9.73131 16.4083 9.72861 15.1448 9.72861Z" fill="white"/>
<path d="M7.77325 14.6077C7.78025 15.4283 7.07781 16.1126 6.22706 16.114C5.3749 16.1153 4.66826 15.4337 4.67386 14.6131C4.67806 13.8047 5.3609 13.1393 6.20327 13.1231C7.04703 13.1069 7.76626 13.7871 7.77325 14.6077Z" fill="white"/>
<path d="M6.20857 7.12505C7.06213 7.1183 7.76876 7.79044 7.77156 8.61375C7.77436 9.43435 7.06773 10.1173 6.21837 10.1146C5.383 10.1132 4.69036 9.4519 4.67217 8.64074C4.65538 7.82418 5.35781 7.13045 6.20857 7.12505Z" fill="white"/>
<path d="M6.21995 19.136C7.0833 19.1346 7.77594 19.7987 7.77174 20.626C7.76894 21.4385 7.0861 22.0985 6.24234 22.1053C5.37339 22.112 4.68075 21.4615 4.67095 20.6314C4.66395 19.8068 5.3566 19.136 6.21995 19.136Z" fill="white"/>
</svg>
