<svg width="30" height="30" viewBox="0 0 30 30" fill="none" xmlns="http://www.w3.org/2000/svg">
<path d="M12.6627 0.409424C14.2208 0.409424 15.7789 0.409424 17.3357 0.409424C18.3854 0.827998 18.6469 1.21884 18.6469 2.36497C18.6469 2.88654 18.6521 3.40942 18.6442 3.93099C18.6416 4.12113 18.7142 4.22677 18.8925 4.29279C19.1948 4.4037 19.4959 4.52254 19.7837 4.66383C19.9924 4.7655 20.131 4.72192 20.2842 4.56215C20.6922 4.1383 21.1134 3.72633 21.5307 3.31171C22.2635 2.58284 23.197 2.57228 23.9272 3.29455C24.8581 4.2162 25.7837 5.14182 26.7067 6.07272C27.4184 6.78971 27.4158 7.73117 26.708 8.44948C26.2815 8.88258 25.8537 9.31303 25.418 9.73689C25.2754 9.87553 25.2384 10.0036 25.3256 10.1898C25.4629 10.4816 25.5896 10.7787 25.6966 11.0811C25.7679 11.2844 25.8841 11.3597 26.0967 11.357C26.7331 11.3478 27.3682 11.3465 28.0047 11.3557C28.5659 11.3636 29.0148 11.604 29.3198 12.0754C29.436 12.2549 29.5007 12.4675 29.5892 12.6643C29.5892 14.2224 29.5892 15.7805 29.5892 17.3372C29.1653 18.3883 28.7785 18.6484 27.6337 18.6484C27.1213 18.6484 26.6077 18.6563 26.0954 18.6445C25.8801 18.6392 25.7679 18.7197 25.6966 18.9217C25.5923 19.2162 25.4748 19.508 25.3374 19.7866C25.2344 19.9953 25.2833 20.1326 25.4404 20.2857C25.8709 20.7004 26.2908 21.1269 26.7107 21.552C27.4105 22.2598 27.4211 23.2026 26.7239 23.9077C25.7969 24.8465 24.8634 25.78 23.9259 26.707C23.2063 27.42 22.2661 27.4147 21.5491 26.707C21.1174 26.2805 20.6843 25.8526 20.2617 25.4169C20.1231 25.2743 19.9937 25.2386 19.8088 25.3258C19.517 25.4618 19.2199 25.5886 18.9175 25.6968C18.7142 25.7681 18.6389 25.8843 18.6429 26.0969C18.6521 26.7334 18.6535 27.3685 18.6442 28.0049C18.6363 28.5529 18.4052 28.9992 17.9484 29.3042C17.7635 29.427 17.5417 29.497 17.337 29.5908C15.7789 29.5908 14.2208 29.5908 12.664 29.5908C11.6116 29.1682 11.3528 28.7827 11.3528 27.6365C11.3528 27.1242 11.3449 26.6119 11.3568 26.0996C11.3621 25.8857 11.2815 25.7708 11.0795 25.6995C10.7851 25.5952 10.4946 25.4776 10.2146 25.3403C10.006 25.2373 9.86737 25.2849 9.71552 25.4433C9.30751 25.8672 8.88761 26.2805 8.46904 26.6938C7.73488 27.42 6.80267 27.4292 6.07247 26.707C5.14157 25.7853 4.21596 24.8584 3.29298 23.9288C2.58127 23.2105 2.58392 22.2703 3.29166 21.552C3.71156 21.1269 4.13145 20.7004 4.56191 20.2844C4.72036 20.1313 4.76525 19.9926 4.66358 19.784C4.52626 19.5041 4.40742 19.2136 4.30311 18.9191C4.2318 18.7158 4.11561 18.6405 3.90302 18.6431C3.26789 18.6524 2.63145 18.6524 1.99501 18.6445C1.46948 18.6379 1.0311 18.4253 0.728722 17.9935C0.590078 17.7967 0.513493 17.5564 0.40918 17.3359C0.40918 15.7778 0.40918 14.2197 0.40918 12.6629C0.831715 11.6106 1.21728 11.3518 2.36473 11.3518C2.88629 11.3518 3.40918 11.3465 3.93075 11.3544C4.12089 11.357 4.22652 11.2844 4.29122 11.1062C4.40346 10.8038 4.52098 10.5027 4.66226 10.2149C4.76393 10.0063 4.71904 9.86761 4.56059 9.71444C4.13673 9.30643 3.72476 8.88522 3.31015 8.46796C2.58127 7.73381 2.57203 6.80159 3.2943 6.07272C4.21596 5.14182 5.14157 4.21488 6.07115 3.29323C6.78814 2.58152 7.72696 2.58284 8.44791 3.29191C8.88101 3.7184 9.31147 4.14622 9.73532 4.58196C9.87397 4.72457 10.0034 4.76022 10.1882 4.67439C10.48 4.53839 10.7771 4.41162 11.0795 4.30335C11.2829 4.23073 11.3581 4.11585 11.3542 3.90194C11.3449 3.2655 11.3449 2.63037 11.3528 1.99393C11.3608 1.44464 11.5918 0.999653 12.0487 0.694635C12.2362 0.571836 12.458 0.503174 12.6627 0.409424ZM15.0276 1.77738C14.3819 1.77738 13.7362 1.78398 13.0905 1.77342C12.8238 1.76946 12.7116 1.86453 12.7168 2.13918C12.7287 2.73733 12.7221 3.33548 12.7195 3.93363C12.7168 4.74569 12.3537 5.26858 11.5932 5.56832C11.3027 5.68319 11.0135 5.80335 10.7256 5.92747C9.98885 6.24569 9.36429 6.13478 8.7965 5.57228C8.36473 5.14446 7.93163 4.71796 7.50909 4.2809C7.32819 4.09472 7.18427 4.10661 7.00601 4.28486C6.10284 5.19464 5.19571 6.10177 4.28462 7.00361C4.1024 7.18451 4.10372 7.32844 4.28726 7.5067C4.7362 7.94376 5.18251 8.38478 5.61693 8.83636C6.12265 9.36057 6.23885 9.96796 5.9576 10.6453C5.81631 10.9873 5.67502 11.328 5.53506 11.6713C5.26173 12.3421 4.71772 12.7131 3.98885 12.7184C3.37089 12.7224 2.75425 12.7263 2.13629 12.7158C1.86164 12.7105 1.76921 12.824 1.77054 13.0908C1.77846 14.3637 1.77846 15.6365 1.77054 16.9094C1.76921 17.1761 1.86296 17.2884 2.13629 17.2831C2.75293 17.2725 3.37089 17.2778 3.98885 17.2805C4.71772 17.2844 5.26173 17.6555 5.53506 18.3262C5.6671 18.6511 5.79782 18.9772 5.93647 19.2994C6.24281 20.0164 6.12661 20.6423 5.57335 21.2021C5.15214 21.6273 4.72696 22.0485 4.30443 22.4724C4.07599 22.7021 4.07599 22.7774 4.30839 23.0098C5.19967 23.905 6.09228 24.799 6.9862 25.6916C7.21332 25.9187 7.29782 25.9173 7.52626 25.6902C7.95672 25.2611 8.38321 24.828 8.81631 24.4015C9.3524 23.8733 9.98356 23.7585 10.6715 24.0516C10.9937 24.1889 11.3185 24.3236 11.6433 24.453C12.3484 24.7356 12.7142 25.2703 12.7168 26.0362C12.7195 26.6436 12.7248 27.2523 12.7142 27.8597C12.7089 28.133 12.8212 28.2281 13.0879 28.2254C14.3608 28.2175 15.6337 28.2175 16.9065 28.2254C17.1746 28.2268 17.2842 28.1277 17.2789 27.857C17.2683 27.2404 17.2736 26.6225 17.2763 26.0045C17.2802 25.2743 17.6513 24.7329 18.3247 24.4622C18.6495 24.3315 18.9756 24.1995 19.2978 24.0622C20.0135 23.7545 20.6407 23.8707 21.2006 24.4253C21.6323 24.8531 22.0654 25.2796 22.488 25.7166C22.6689 25.9028 22.8128 25.8936 22.991 25.714C23.8942 24.8042 24.8013 23.8984 25.7124 22.9953C25.8933 22.8157 25.8947 22.6691 25.7111 22.4909C25.2622 22.0538 24.8198 21.6088 24.3801 21.1625C23.8771 20.6515 23.7609 20.0124 24.0381 19.3535C24.1781 19.0221 24.3181 18.6894 24.4514 18.3553C24.7327 17.6515 25.2701 17.2844 26.0346 17.2818C26.642 17.2791 27.2507 17.2739 27.8581 17.2844C28.1315 17.2897 28.2265 17.1775 28.2252 16.9107C28.2173 15.6379 28.2173 14.365 28.2252 13.0921C28.2265 12.8214 28.1222 12.7171 27.8542 12.7224C27.2375 12.7329 26.6196 12.729 26.0016 12.725C25.2727 12.7197 24.7353 12.346 24.462 11.67C24.3313 11.3452 24.1992 11.019 24.0606 10.6968C23.7582 9.99305 23.8731 9.36189 24.4131 8.81655C24.841 8.38478 25.2675 7.95036 25.7045 7.52914C25.896 7.34428 25.9065 7.19772 25.7124 7.00626C24.8 6.10441 23.8942 5.19728 22.991 4.28751C22.8101 4.10529 22.6649 4.10793 22.488 4.29015C22.0509 4.73909 21.6072 5.18143 21.1596 5.62113C20.6486 6.12289 20.0095 6.23909 19.3493 5.9618C19.0179 5.82184 18.6851 5.68319 18.3511 5.54851C17.6473 5.26594 17.2802 4.72985 17.2776 3.964C17.2749 3.35661 17.2697 2.74789 17.2802 2.1405C17.2855 1.86717 17.1733 1.77078 16.9065 1.77474C16.282 1.78398 15.6548 1.77738 15.0276 1.77738Z" fill="white"/>
<path d="M17.4256 30H12.5836L12.5097 29.971C11.3081 29.4877 10.9423 28.9423 10.9423 27.6364C10.9423 27.4899 10.9423 27.342 10.941 27.1954C10.9397 26.8336 10.9384 26.4599 10.9463 26.0902C10.9463 26.0889 10.9463 26.0876 10.9463 26.0876C10.945 26.0876 10.9437 26.0863 10.9423 26.0863C10.607 25.9674 10.3099 25.8446 10.0326 25.7086C10.0313 25.7086 10.0299 25.7073 10.0299 25.7073C10.0233 25.7126 10.0167 25.7192 10.0088 25.7284C9.64569 26.1048 9.27069 26.4771 8.90625 26.8376L8.75572 26.9868C7.86312 27.8715 6.66813 27.8768 5.78345 27C4.8882 26.1127 3.97843 25.2042 3.00132 24.2192C2.1272 23.3385 2.1272 22.1514 2.99868 21.268L3.01452 21.2522C3.42386 20.8376 3.84771 20.4085 4.27553 19.9938C4.28345 19.9859 4.29137 19.978 4.29666 19.9727C4.29666 19.9714 4.29533 19.9701 4.29401 19.9688C4.15669 19.6915 4.02993 19.3851 3.91505 19.059C3.91505 19.0577 3.91505 19.0577 3.91373 19.0563C3.91241 19.0563 3.90977 19.0563 3.90713 19.0563C3.2971 19.0656 2.66857 19.0669 1.98724 19.0577C1.31646 19.0497 0.764525 18.7645 0.392166 18.2337C0.272007 18.0621 0.192782 17.8746 0.122799 17.7095C0.0950704 17.6435 0.0673416 17.5788 0.0369718 17.5154L0 17.4283V12.5836L0.0290493 12.5097C0.511004 11.3094 1.05634 10.9437 2.36488 10.9437L2.80854 10.9423C3.17033 10.941 3.54533 10.9397 3.91505 10.945C4.01805 10.6677 4.14349 10.3455 4.29533 10.0339C4.29666 10.0326 4.29666 10.0299 4.29798 10.0286C4.29269 10.0233 4.28609 10.0154 4.27685 10.0075C3.92562 9.66813 3.57702 9.3169 3.24032 8.97755L3.01981 8.75572C2.1338 7.86312 2.1272 6.66945 3.00264 5.78345C3.91373 4.86312 4.84859 3.92694 5.78213 3.00132C6.66153 2.12852 7.84859 2.1272 8.73327 2.99868C9.11884 3.37764 9.57306 3.8279 10.0273 4.29533C10.36 4.14085 10.6585 4.01673 10.941 3.91637C10.9423 3.91637 10.9437 3.91505 10.9437 3.91505C10.9437 3.91241 10.9437 3.90977 10.9437 3.90713C10.9344 3.28521 10.9331 2.63952 10.9423 1.98724C10.9516 1.29401 11.2553 0.728873 11.8217 0.353873C11.9828 0.246919 12.1571 0.175616 12.3103 0.113556C12.371 0.0884683 12.4318 0.0633803 12.4912 0.0369718L12.5744 0H17.4151L17.4877 0.0290493C18.6893 0.509683 19.0563 1.05502 19.0563 2.36356L19.0577 2.80854C19.059 3.17033 19.0603 3.54401 19.055 3.91505C19.331 4.01673 19.6518 4.14217 19.9648 4.29533C19.9661 4.29666 19.9688 4.29666 19.9701 4.29798C19.9754 4.29269 19.9833 4.28609 19.9912 4.27817C20.316 3.94146 20.6527 3.60739 20.9789 3.28521L21.2443 3.02245C22.1369 2.13512 23.3305 2.12852 24.2165 3.00396C25.0999 3.87808 26.011 4.78785 26.9987 5.78477C27.8728 6.66549 27.8741 7.85123 27.0013 8.73724C26.5233 9.22183 26.1206 9.6272 25.706 10.0313C25.706 10.0313 25.706 10.0313 25.7047 10.0313C25.8578 10.3574 25.982 10.6571 26.0836 10.945C26.0836 10.9463 26.0849 10.9476 26.0849 10.9476C26.0876 10.9476 26.0902 10.9476 26.0929 10.9476C26.732 10.9384 27.3776 10.9371 28.0128 10.9463C28.7165 10.9569 29.2883 11.2698 29.6659 11.8521C29.7676 12.0079 29.8336 12.1756 29.893 12.3222C29.9168 12.3803 29.9393 12.4384 29.9657 12.4952L30.0013 12.5744V17.4151L29.9723 17.489C29.489 18.6906 28.9423 19.0563 27.6378 19.0563C27.4899 19.0563 27.3433 19.0563 27.1954 19.0577C26.8336 19.059 26.4599 19.0603 26.0902 19.0524C26.0889 19.0524 26.0889 19.0524 26.0876 19.0524C26.0876 19.0537 26.0863 19.055 26.0863 19.0563C25.9661 19.3957 25.842 19.6941 25.7073 19.9674C25.7073 19.9674 25.7073 19.9688 25.706 19.9688C25.7113 19.9754 25.7192 19.982 25.7271 19.9899C26.1536 20.4005 26.5748 20.827 26.9815 21.2403L27.004 21.2641C27.8596 22.1303 27.8649 23.3358 27.0172 24.1941C26.1285 25.0946 25.1857 26.0374 24.2152 26.9974C23.3332 27.8702 22.1474 27.8702 21.2641 26.9974C20.8231 26.5616 20.3913 26.1351 19.9701 25.702C19.6386 25.8565 19.3389 25.9806 19.055 26.081C19.0537 26.081 19.0537 26.081 19.0524 26.0823C19.0524 26.0849 19.0524 26.0876 19.0524 26.0902C19.0629 26.7293 19.0629 27.375 19.0537 28.0101C19.0431 28.7033 18.7394 29.2685 18.1743 29.6435C18.0132 29.7504 17.8389 29.8217 17.6871 29.8838C17.6263 29.9089 17.5656 29.934 17.5062 29.9604L17.4256 30ZM12.7434 29.1813H17.2513C17.2936 29.1629 17.3358 29.1457 17.3781 29.1285C17.5075 29.0757 17.629 29.0255 17.7227 28.9635C18.0621 28.7377 18.2298 28.4221 18.2364 27.9996C18.2456 27.3724 18.2456 26.7346 18.235 26.1048C18.2284 25.7152 18.4186 25.4419 18.783 25.3125C19.0458 25.2201 19.3257 25.1039 19.6386 24.9573C19.8724 24.8477 20.2223 24.7896 20.5577 25.1342C20.9736 25.5621 21.4014 25.9859 21.8398 26.4177C22.3957 26.967 23.0863 26.967 23.6408 26.4177C24.6087 25.4604 25.5489 24.5189 26.4349 23.621C26.9723 23.0757 26.9683 22.393 26.4217 21.8398L26.3992 21.816C25.9952 21.4067 25.5779 20.9842 25.1593 20.5801C24.8596 20.2909 24.7962 19.9621 24.9732 19.6056C25.0933 19.3627 25.2042 19.0946 25.3138 18.7857C25.4432 18.4173 25.7179 18.2245 26.1074 18.235C26.4666 18.243 26.8349 18.2416 27.1901 18.2403C27.338 18.2403 27.4872 18.239 27.6351 18.239C28.5871 18.239 28.8367 18.0898 29.1813 17.2566V12.7474C29.1642 12.7077 29.1483 12.6668 29.1325 12.6272C29.0823 12.5031 29.0361 12.3869 28.978 12.2971C28.7496 11.9445 28.43 11.7702 27.9996 11.7636C27.3724 11.7544 26.7346 11.7544 26.1034 11.765C25.7113 11.7716 25.4406 11.5814 25.3112 11.217C25.2161 10.9503 25.0999 10.6703 24.956 10.3627C24.8464 10.129 24.7883 9.77905 25.1342 9.44234C25.5436 9.04357 25.9437 8.64085 26.4177 8.16021C26.967 7.60299 26.967 6.91241 26.4177 6.35916C25.4313 5.36488 24.5229 4.45643 23.6408 3.58363C23.0744 3.02377 22.3944 3.03037 21.8213 3.60079L21.5546 3.86488C21.2324 4.18442 20.8996 4.51452 20.5801 4.84463C20.2923 5.14305 19.9648 5.20511 19.6056 5.02949C19.3178 4.8882 19.0128 4.77069 18.7513 4.67562C18.4093 4.54886 18.2311 4.28873 18.2364 3.9243C18.2416 3.55458 18.2403 3.17694 18.2403 2.81118L18.239 2.36356C18.239 1.40889 18.0898 1.15933 17.2579 0.817342H12.7487C12.7064 0.835828 12.6642 0.852993 12.6219 0.870158C12.4925 0.922975 12.371 0.973151 12.2773 1.03521C11.9366 1.261 11.7689 1.57658 11.7636 1.99912C11.7544 2.64349 11.7557 3.28125 11.765 3.89525C11.7716 4.28477 11.5814 4.55942 11.217 4.6875C10.9555 4.77993 10.6756 4.89613 10.3614 5.04269C10.1276 5.15229 9.77773 5.21039 9.44234 4.86444C8.9934 4.40361 8.54313 3.95731 8.16153 3.58099C7.60431 3.03169 6.91373 3.03169 6.36048 3.58099C5.42826 4.50528 4.49472 5.44014 3.58627 6.35783C3.02641 6.92298 3.03169 7.60299 3.60211 8.17738L3.82262 8.40053C4.15669 8.73724 4.50132 9.08583 4.84595 9.41857C5.14437 9.70643 5.20643 10.0339 5.03081 10.393C4.89085 10.6783 4.77333 10.9846 4.67562 11.2474C4.54886 11.5893 4.29005 11.765 3.9243 11.7623C3.55458 11.757 3.17562 11.7584 2.80986 11.7584L2.36356 11.7597C1.41021 11.7597 1.16065 11.9089 0.817342 12.7421V17.2474C0.838468 17.2936 0.858275 17.3411 0.878081 17.3873C0.9375 17.5273 0.992958 17.6593 1.06294 17.7584C1.28477 18.0739 1.59111 18.2298 1.99912 18.235C2.67254 18.243 3.29313 18.243 3.89525 18.2337C4.28477 18.2271 4.55942 18.4173 4.6875 18.783C4.79181 19.0788 4.90669 19.3548 5.02817 19.603C5.20511 19.9608 5.14305 20.2896 4.84463 20.5788C4.42342 20.9855 4.00352 21.412 3.59683 21.8226L3.58099 21.8385C3.03169 22.3957 3.03169 23.0849 3.58099 23.6395C4.55546 24.6219 5.46391 25.5304 6.35783 26.4151C6.92298 26.9749 7.60431 26.9696 8.1787 26.4018L8.32923 26.2526C8.6897 25.8961 9.06206 25.5277 9.41725 25.158C9.70643 24.8583 10.0339 24.7962 10.3917 24.9718C10.64 25.0933 10.908 25.2055 11.213 25.3125C11.5814 25.4419 11.7716 25.7166 11.7636 26.1061C11.7557 26.4652 11.757 26.8336 11.7584 27.1901C11.7584 27.338 11.7597 27.4859 11.7597 27.6351C11.761 28.5871 11.9102 28.8367 12.7434 29.1813ZM16.9225 28.6347C16.9159 28.6347 16.9107 28.6347 16.9041 28.6347C15.6496 28.6268 14.3662 28.6268 13.0907 28.6347C12.9982 28.6347 12.7104 28.6373 12.5031 28.4287C12.3658 28.2887 12.3011 28.1012 12.305 27.8517C12.3143 27.3552 12.3116 26.8468 12.309 26.3556L12.3077 26.0374C12.305 25.4379 12.0462 25.055 11.4903 24.8319C11.1747 24.7051 10.8446 24.5691 10.5092 24.4265C9.96655 24.1954 9.51893 24.2799 9.10167 24.6919C8.84947 24.9401 8.59991 25.191 8.35035 25.4419C8.17078 25.6215 7.99252 25.8011 7.81294 25.9793C7.42606 26.3649 7.08143 26.3649 6.69586 25.9806C5.80194 25.088 4.90933 24.1941 4.01673 23.2989C3.62588 22.9067 3.62456 22.5739 4.01276 22.1844C4.19762 21.9982 4.3838 21.8121 4.56998 21.6272C4.80766 21.3908 5.04401 21.1532 5.28037 20.9155C5.71479 20.4758 5.80062 20.0282 5.55898 19.4617C5.43882 19.1805 5.32394 18.8966 5.20775 18.6127L5.15493 18.482C4.94234 17.9604 4.54886 17.6937 3.98636 17.691L3.79225 17.6897C3.25088 17.6871 2.69234 17.6831 2.14437 17.6937C1.89613 17.6976 1.70731 17.6329 1.56866 17.4956C1.36004 17.2896 1.36136 17.0031 1.36268 16.908C1.3706 15.6615 1.3706 14.3794 1.36268 13.0946C1.36268 12.9996 1.36004 12.713 1.56866 12.507C1.70731 12.3697 1.89481 12.3063 2.14437 12.309C2.70687 12.3195 3.28125 12.3156 3.83583 12.3129L3.98636 12.3116C4.54886 12.309 4.94234 12.0423 5.15625 11.5194C5.29622 11.1761 5.4375 10.8341 5.58011 10.4921C5.79798 9.96787 5.71611 9.53213 5.32262 9.12412C4.94894 8.73592 4.52905 8.31602 4.0022 7.8037C3.82658 7.63336 3.74076 7.45643 3.74076 7.261C3.73944 7.0669 3.82394 6.88864 3.99824 6.71567C4.89085 5.83099 5.8059 4.91725 6.71699 3.99956C6.78169 3.93486 6.97183 3.73944 7.26629 3.73944C7.45775 3.74076 7.63732 3.82791 7.8037 3.99824C8.19586 4.40229 8.60519 4.80766 9 5.1985L9.08583 5.28301C9.53477 5.72667 9.97579 5.80722 10.5647 5.5537C10.8618 5.42562 11.1576 5.30282 11.4441 5.18926C12.0502 4.95026 12.3103 4.57526 12.3116 3.93354L12.3129 3.53213C12.3156 3.0779 12.3169 2.60783 12.309 2.14833C12.3037 1.89877 12.3697 1.70863 12.5097 1.56866C12.7183 1.36004 13.0048 1.364 13.0999 1.36532C13.5555 1.37324 14.0216 1.3706 14.4718 1.36928C14.8389 1.36796 15.2073 1.36796 15.5744 1.36928C16.0101 1.3706 16.4617 1.37192 16.9041 1.364C16.9991 1.36268 17.2843 1.35739 17.4943 1.56602C17.6342 1.70599 17.7003 1.89481 17.695 2.14569C17.6857 2.63688 17.6884 3.13996 17.691 3.62588L17.6923 3.95995C17.695 4.5515 17.9617 4.9463 18.5084 5.16549C18.8556 5.30414 19.2042 5.45202 19.5132 5.58143C20.0268 5.79666 20.4864 5.71083 20.8785 5.32658C21.3961 4.81822 21.816 4.39833 22.2003 4.0022C22.368 3.82923 22.5515 3.74076 22.743 3.73944C22.7443 3.73944 22.7456 3.73944 22.7456 3.73944C22.9357 3.73944 23.118 3.82526 23.287 3.9956C24.2852 5.00308 25.1752 5.89173 26.0044 6.71171C26.1827 6.88732 26.2685 7.06822 26.2672 7.26497C26.2658 7.5581 26.0612 7.75616 25.9938 7.82086C25.6188 8.18266 25.2452 8.5603 24.8834 8.92606L24.7104 9.10167C24.2905 9.52553 24.206 9.97975 24.4437 10.533C24.5863 10.8671 24.7249 11.2104 24.8477 11.5141C25.059 12.0396 25.4511 12.3077 26.011 12.3129C26.6026 12.3182 27.2324 12.3209 27.853 12.3116C28.1052 12.3077 28.294 12.3724 28.434 12.511C28.6426 12.717 28.6413 12.9996 28.64 13.0933C28.632 14.3464 28.632 15.6285 28.64 16.9067C28.64 17.0004 28.6426 17.287 28.4327 17.4943C28.2927 17.6316 28.1039 17.6976 27.8556 17.6923C27.3671 17.6831 26.8666 17.6857 26.3834 17.6884L26.0401 17.6897C25.4485 17.6923 25.055 17.9591 24.8358 18.507C24.7051 18.8358 24.5691 19.1567 24.4199 19.5119C24.2047 20.0242 24.2905 20.4824 24.6761 20.8759C25.2029 21.412 25.6122 21.82 26.0004 22.1976C26.1734 22.3653 26.2606 22.5475 26.2619 22.7403C26.2632 22.9331 26.1761 23.1166 26.0044 23.2857C25.0801 24.202 24.1651 25.1158 23.2857 26.0018C23.1114 26.1774 22.9291 26.2579 22.7364 26.2606C22.5449 26.2592 22.364 26.1721 22.1976 26.0004C21.8398 25.6307 21.4674 25.2623 21.107 24.9045L20.9155 24.7143C20.4771 24.2786 20.0282 24.1928 19.463 24.4371C19.1514 24.5704 18.8345 24.6985 18.5282 24.8226L18.482 24.8411C17.9591 25.0524 17.6923 25.4445 17.6897 26.007L17.6884 26.1417C17.6857 26.7029 17.6818 27.2826 17.691 27.8504C17.695 28.0999 17.6303 28.2887 17.4916 28.4287C17.2949 28.6254 17.0308 28.6347 16.9225 28.6347ZM9.96127 23.4864C10.2452 23.4864 10.5383 23.5484 10.8341 23.6739C11.1629 23.8138 11.4877 23.9485 11.798 24.0726C12.6655 24.4199 13.125 25.0986 13.129 26.0335L13.1303 26.3504C13.1329 26.8297 13.1356 27.3248 13.1263 27.816C14.3794 27.8081 15.6391 27.8094 16.871 27.816C16.8618 27.2548 16.8658 26.6871 16.8684 26.1378L16.8697 26.0031C16.875 25.1158 17.3504 24.4159 18.1743 24.0832L18.2205 24.0647C18.5229 23.9419 18.8358 23.8165 19.1395 23.6857C20.007 23.3134 20.8204 23.4679 21.4912 24.1347L21.6813 24.3235C22.0299 24.6695 22.3904 25.0273 22.7403 25.3864C23.5973 24.5229 24.4872 23.6342 25.3864 22.743C25.0048 22.3719 24.6034 21.9692 24.0898 21.4476C23.4771 20.8244 23.3213 20.0031 23.6633 19.1923C23.8112 18.8398 23.9445 18.5229 24.0739 18.2007C24.4159 17.3451 25.1131 16.8724 26.0348 16.8697L26.3768 16.8684C26.8482 16.8658 27.3354 16.8644 27.8173 16.8724C27.8094 15.618 27.8094 14.3596 27.8173 13.1303C27.202 13.1395 26.5827 13.1356 26.0004 13.1316C25.1158 13.125 24.4186 12.647 24.0858 11.8204C23.9657 11.5207 23.8283 11.1813 23.6884 10.8565C23.3187 9.9956 23.4705 9.19014 24.1254 8.52729L24.2984 8.35299C24.6536 7.99384 25.022 7.62148 25.3944 7.26232C24.5836 6.46083 23.7161 5.59331 22.7456 4.61488C22.368 5.00308 21.9547 5.41637 21.4503 5.91153C20.8283 6.52289 20.0057 6.67738 19.195 6.33671C18.8649 6.19806 18.5348 6.05942 18.202 5.92606C17.3477 5.58275 16.875 4.88688 16.8724 3.96391L16.871 3.62984C16.8684 3.15581 16.8671 2.66725 16.875 2.18266C16.4393 2.18926 15.9982 2.18794 15.5717 2.18662C15.206 2.1853 14.8402 2.1853 14.4745 2.18662C14.0335 2.18794 13.5792 2.18926 13.129 2.18266C13.1369 2.63556 13.1342 3.09243 13.1329 3.53477L13.1316 3.93486C13.129 4.90933 12.6629 5.58803 11.7465 5.94982C11.4679 6.05942 11.18 6.17826 10.8922 6.3037C9.99824 6.69058 9.19806 6.54269 8.51276 5.864L8.42694 5.77949C8.04269 5.39921 7.64657 5.00836 7.26232 4.61224C6.37632 5.50616 5.48636 6.39481 4.61752 7.25572C5.13116 7.75616 5.54445 8.16945 5.91549 8.5537C6.53609 9.19806 6.68266 9.97579 6.33935 10.8037C6.19806 11.1444 6.05678 11.485 5.91813 11.827C5.58275 12.6483 4.88292 13.1237 3.9956 13.1276L3.84507 13.129C3.30238 13.1316 2.73988 13.1356 2.1853 13.1263C2.19322 14.3886 2.19322 15.6483 2.1853 16.8737C2.72535 16.8644 3.27201 16.8684 3.8015 16.871L3.9956 16.8724C4.88292 16.8763 5.58407 17.3517 5.91813 18.173L5.97095 18.3037C6.08451 18.5823 6.19806 18.8622 6.31558 19.1382C6.6919 20.0176 6.54005 20.8085 5.86664 21.4899C5.63028 21.7289 5.39129 21.9666 5.15229 22.2055C4.97403 22.3838 4.79577 22.5607 4.61884 22.739C5.49824 23.621 6.37764 24.5018 7.25836 25.3825C7.43134 25.2108 7.60299 25.0379 7.77597 24.8649C8.02685 24.6127 8.27905 24.3605 8.53257 24.1109C8.9485 23.6963 9.4397 23.4864 9.96127 23.4864Z" fill="white"/>
<path d="M20.6992 15.0083C20.6833 18.1801 18.119 20.7167 14.9472 20.6969C11.8058 20.6784 9.29025 18.1088 9.30081 14.9317C9.31138 11.8207 11.9008 9.28668 15.0528 9.30121C18.1652 9.31573 20.715 11.8933 20.6992 15.0083ZM19.3312 15.0096C19.3285 12.613 17.3874 10.6639 15.0092 10.6692C12.598 10.6745 10.6662 12.6103 10.6688 15.0202C10.6715 17.3997 12.6231 19.3342 15.0198 19.3315C17.3874 19.3289 19.3338 17.3786 19.3312 15.0096Z" fill="white"/>
<path d="M14.983 21.1075C14.9698 21.1075 14.9579 21.1075 14.9447 21.1075C11.596 21.0877 8.87976 18.3173 8.89164 14.9316C8.89692 13.3325 9.53339 11.8232 10.6835 10.6823C11.8469 9.52822 13.3892 8.89307 15.0266 8.89307C15.0358 8.89307 15.0464 8.89307 15.0556 8.89307C16.6706 8.90099 18.1918 9.54406 19.3406 10.7048C20.4894 11.8655 21.1166 13.3959 21.1087 15.0108C21.1008 16.6548 20.4564 18.1919 19.2944 19.3407C18.1416 20.4802 16.6125 21.1075 14.983 21.1075ZM15.0266 9.71044C13.6057 9.71044 12.2694 10.2611 11.2593 11.262C10.2649 12.2484 9.7143 13.553 9.71034 14.9329C9.70109 17.8683 12.0515 20.2703 14.95 20.2888C16.3735 20.2967 17.7124 19.754 18.7186 18.7597C19.7248 17.764 20.2821 16.4317 20.29 15.0069C20.2966 13.6098 19.7526 12.2854 18.7582 11.2805C17.7639 10.2743 16.4474 9.71704 15.0517 9.71044C15.0437 9.71044 15.0345 9.71044 15.0266 9.71044ZM15.016 19.7408C12.3949 19.7408 10.2623 17.6241 10.2597 15.0201C10.257 12.4016 12.3869 10.265 15.0081 10.2598C15.0107 10.2598 15.0147 10.2598 15.0187 10.2598C16.2757 10.2598 17.4589 10.7536 18.3515 11.6502C19.2455 12.5481 19.7394 13.7419 19.7407 15.0095C19.742 16.264 19.2495 17.4498 18.3542 18.3477C17.4589 19.2456 16.2744 19.7408 15.02 19.7408C15.0187 19.7408 15.0173 19.7408 15.016 19.7408ZM15.0187 11.0785C15.016 11.0785 15.0134 11.0785 15.0107 11.0785C12.8399 11.0824 11.077 12.8505 11.0784 15.0201C11.081 17.1725 12.8465 18.9234 15.016 18.9234C15.0173 18.9234 15.0187 18.9234 15.02 18.9234C16.0565 18.9221 17.035 18.5127 17.7758 17.7706C18.5166 17.0272 18.9246 16.0474 18.9233 15.0122C18.922 13.9624 18.5126 12.9733 17.7718 12.2299C17.0337 11.4865 16.0552 11.0785 15.0187 11.0785Z" fill="white"/>
</svg>
