<svg width="30" height="30" viewBox="0 0 30 30" fill="none" xmlns="http://www.w3.org/2000/svg">
<path d="M19.5555 12.0753C19.496 13.6995 18.7916 15.0502 17.3233 15.9251C16.5727 16.3718 16.1366 16.9374 16.0877 17.8229C16.0546 18.4268 15.4639 18.8735 14.8427 18.8352C14.2559 18.7995 13.8132 18.3158 13.8278 17.6947C13.8674 16.1075 14.5745 14.8995 15.941 14.0987C17.1026 13.4167 17.5586 12.2286 17.0617 11.092C16.6414 10.1313 15.6476 9.59204 14.5863 9.74931C13.611 9.89336 12.8233 10.7127 12.6978 11.7172C12.6819 11.8414 12.674 11.9669 12.6634 12.0912C12.6145 12.7123 12.1176 13.1603 11.4938 13.1471C10.8793 13.1339 10.4009 12.6515 10.385 12.0277C10.3269 9.63566 12.3304 7.51319 14.7225 7.43125C17.1846 7.34799 19.1524 8.9894 19.5159 11.4357C19.5423 11.622 19.5396 11.8123 19.5555 12.0753Z" fill="white"/>
<path d="M15 2.2467C22.0322 2.2467 27.7533 7.96784 27.7533 15C27.7533 22.0322 22.0322 27.7533 15 27.7533C7.96784 27.7533 2.2467 22.0322 2.2467 15C2.2467 7.96784 7.96784 2.2467 15 2.2467ZM15 0C6.7163 0 0 6.7163 0 15C0 23.2837 6.7163 30 15 30C23.2837 30 30 23.2837 30 15C30 6.7163 23.2837 0 15 0Z" fill="white"/>
<path d="M14.9681 20.9948C15.7175 20.9934 16.3188 21.5921 16.3148 22.3362C16.3122 23.067 15.7201 23.6604 14.988 23.667C14.2347 23.6736 13.632 23.0868 13.6241 22.3401C13.6175 21.5974 14.2188 20.9948 14.9681 20.9948Z" fill="white"/>
</svg>
