<svg width="30" height="24" viewBox="0 0 30 24" fill="none" xmlns="http://www.w3.org/2000/svg">
<path d="M18.31 23.0769L2.84451 23.0757C1.17047 23.0757 0.0012282 21.9512 0.0012282 20.3427C0 15.0674 0 9.79204 0 4.51553C0 3.89144 0.0036846 3.26735 0.0073692 2.64444C0.018423 1.13838 1.20486 0.00206068 2.76836 0.000883147C5.2702 -0.000294382 7.77205 -0.000294382 10.2739 0.000883147C11.7674 0.00206068 12.9379 1.07361 13.0165 2.50078H17.5239C20.7246 2.50078 23.9241 2.50078 27.1248 2.50078C28.8381 2.50078 29.9902 3.59824 29.9914 5.23147C29.9963 10.276 29.9988 15.3217 30 20.3663C30 21.154 29.7261 21.8311 29.2066 22.3257C28.6895 22.8179 27.9833 23.0769 27.1641 23.0769H18.31ZM14.9902 21.0751H27.1629C27.3422 21.0751 27.5866 21.0457 27.7352 20.9044C27.8814 20.7654 27.9121 20.5346 27.9121 20.3663C27.9121 15.3217 27.9084 10.2772 27.9035 5.23265C27.9035 4.7004 27.6922 4.5014 27.1248 4.5014C23.9241 4.5014 20.7246 4.5014 17.5239 4.5014H13.0066C12.9219 4.5014 12.8371 4.50022 12.7536 4.49904C12.6001 4.49669 12.4539 4.49434 12.3287 4.50258C11.8091 4.5379 11.4812 4.33772 11.2994 4.16345C11.1164 3.98917 10.904 3.67477 10.9359 3.1649C10.9457 2.99769 10.9408 2.81165 10.9334 2.62089C10.9199 2.24525 10.6608 2.00268 10.2739 2.00151C7.77082 2.00151 5.2702 2.00151 2.76959 2.00268C2.34955 2.00268 2.09776 2.24761 2.09531 2.65739C2.09162 3.27677 2.08794 3.89615 2.08794 4.51553C2.08794 9.79086 2.08794 15.0674 2.08917 20.3427C2.08917 20.8561 2.31516 21.0751 2.84451 21.0751H14.9902Z" fill="white"/>
</svg>
