<svg width="26" height="25" viewBox="0 0 26 25" fill="none" xmlns="http://www.w3.org/2000/svg">
<path fill-rule="evenodd" clip-rule="evenodd" d="M8.85733 19.572C9.0939 19.572 9.33816 19.6237 9.58463 19.7282C9.85861 19.8449 10.1293 19.9571 10.3879 20.0605C11.1108 20.3499 11.4937 20.9155 11.497 21.6945L11.4981 21.9586C11.5003 22.3581 11.5025 22.7707 11.4948 23.18C12.5389 23.1734 13.5886 23.1745 14.6152 23.18C14.6082 22.7523 14.6103 22.3199 14.6124 21.8989C14.6126 21.8597 14.6128 21.8205 14.613 21.7815L14.6141 21.6692C14.6185 20.9298 15.0146 20.3466 15.7012 20.0693L15.7397 20.0539C15.7785 20.0382 15.8175 20.0224 15.8566 20.0065C16.0718 19.9193 16.2914 19.8303 16.5055 19.7381C17.2284 19.4278 17.9062 19.5566 18.4652 20.1122L18.6236 20.2696C18.9141 20.5579 19.2145 20.8561 19.5061 21.1554C20.2202 20.4357 20.9618 19.6952 21.7111 18.9525C21.3931 18.6433 21.0586 18.3077 20.6306 17.873C20.12 17.3537 19.9902 16.6692 20.2752 15.9936L20.2992 15.9364C20.4129 15.6653 20.5166 15.4182 20.6174 15.1673C20.9024 14.4542 21.4833 14.0603 22.2513 14.0581L22.5363 14.057C22.9291 14.0548 23.3351 14.0537 23.7367 14.0603C23.7301 13.015 23.7301 11.9663 23.7367 10.9419C23.224 10.9496 22.708 10.9463 22.2227 10.943C21.4855 10.9375 20.9046 10.5392 20.6273 9.85035C20.5272 9.60057 20.4127 9.31778 20.2961 9.0471C19.988 8.32967 20.1145 7.65845 20.6603 7.10607L20.8044 6.96083C21.1004 6.66153 21.4074 6.35123 21.7177 6.05194C21.0421 5.38402 20.3192 4.66109 19.5105 3.84573C19.1958 4.16923 18.8514 4.51364 18.4311 4.92628C17.9128 5.43574 17.2273 5.56448 16.5518 5.28059C16.2767 5.16505 16.0016 5.04952 15.7243 4.93838C15.0124 4.65229 14.6185 4.0724 14.6163 3.30326L14.6152 3.02487C14.613 2.62984 14.6119 2.22271 14.6185 1.81888C14.2554 1.82438 13.8879 1.82328 13.5325 1.82218C13.2277 1.82108 12.923 1.82108 12.6182 1.82218C12.2507 1.82328 11.8722 1.82438 11.497 1.81888C11.5029 2.15567 11.5017 2.4951 11.5006 2.8262C11.5005 2.86614 11.5004 2.90596 11.5003 2.94564L11.4992 3.27905C11.497 4.09111 11.1086 4.65669 10.3449 4.95819C10.1128 5.04952 9.87291 5.14855 9.63305 5.25308C8.88814 5.57548 8.22136 5.45224 7.6503 4.88666L7.57878 4.81624C7.55778 4.79545 7.53673 4.77463 7.51565 4.75377C7.21533 4.45659 6.9075 4.15198 6.60831 3.84353C5.87001 4.58847 5.1284 5.32901 4.4044 6.04644C4.83242 6.46347 5.17682 6.80788 5.486 7.12808C6.00314 7.66505 6.12528 8.31316 5.8392 9.00308C5.72147 9.28697 5.60373 9.57086 5.4882 9.85585C5.20872 10.5403 4.62556 10.9364 3.88616 10.9397L3.76073 10.9408C3.72236 10.941 3.68387 10.9412 3.64528 10.9414C3.22901 10.9435 2.80056 10.9457 2.37764 10.9386C2.38424 11.9905 2.38424 13.0403 2.37764 14.0614C2.78918 14.0544 3.20533 14.0565 3.61092 14.0586C3.64885 14.0588 3.68669 14.059 3.72442 14.0592L3.88616 14.0603C4.62556 14.0636 5.20983 14.4597 5.4882 15.1441L5.53221 15.2531C5.54054 15.2735 5.54887 15.294 5.5572 15.3144C5.64352 15.5263 5.73008 15.7388 5.81939 15.9485C6.13298 16.6813 6.00644 17.3405 5.44529 17.9082C5.30724 18.0478 5.16811 18.1869 5.02865 18.3262C5.01951 18.3353 5.00981 18.345 5.00066 18.3541L4.99943 18.3554C4.94965 18.4051 4.89984 18.4548 4.85003 18.5046C4.80046 18.5542 4.7509 18.6036 4.70138 18.653L4.70006 18.6543C4.6016 18.7526 4.50331 18.8506 4.4055 18.9492C5.13831 19.6842 5.87111 20.4181 6.60501 21.1521C6.70104 21.0568 6.79658 20.961 6.89229 20.865C6.94023 20.817 6.98822 20.7688 7.03633 20.7207C7.24539 20.5106 7.45555 20.3004 7.6668 20.0924C8.0134 19.7469 8.42271 19.572 8.85733 19.572ZM13.0093 17.5896H13.0412C14.3991 17.5896 15.6733 17.0669 16.6339 16.1172C17.6022 15.1599 18.1392 13.879 18.1458 12.509C18.1524 11.1632 17.6297 9.88788 16.6724 8.92063C15.7151 7.95338 14.4475 7.41749 13.1018 7.41088H13.0775C11.7131 7.41088 10.4279 7.94018 9.4585 8.90192C8.50009 9.85266 7.96973 11.1104 7.96532 12.443C7.95542 15.2644 10.2188 17.5731 13.0093 17.5896Z" fill="#989898"/>
</svg>
