<svg width="30" height="26" viewBox="0 0 30 26" fill="none" xmlns="http://www.w3.org/2000/svg">
<path d="M0.362305 9.94925C0.411859 9.77938 0.454892 9.60821 0.510966 9.44091C0.881317 8.34313 1.89717 7.60442 3.08386 7.58769C3.89367 7.57611 4.70349 7.58512 5.51461 7.58512C5.61763 7.58512 5.72065 7.58512 5.86018 7.58512C5.86018 7.46286 5.86018 7.36248 5.86018 7.26338C5.86018 5.90822 5.85888 4.55434 5.86018 3.19918C5.86148 1.52099 7.03513 0.360162 8.73431 0.358875C12.9177 0.357588 17.1011 0.357588 21.2858 0.358875C22.9667 0.360162 24.143 1.52228 24.1469 3.18116C24.1482 3.71782 24.1495 8.26592 24.1469 8.80258C24.143 9.3727 23.7491 9.78581 23.2249 9.77551C22.7098 9.76651 22.3356 9.36112 22.3316 8.80129C22.329 8.24661 22.3329 3.67922 22.3303 3.12325C22.3264 2.52868 21.9482 2.15289 21.3484 2.1516C17.1167 2.15031 12.8851 2.15031 8.65476 2.1516C8.05359 2.1516 7.67933 2.52739 7.67933 3.12583C7.67803 9.94539 7.67803 16.7662 7.67933 23.5858C7.67933 23.6592 7.68585 23.7325 7.68976 23.8226C8.6039 23.8226 9.5037 23.8226 10.4374 23.8226C10.4374 23.7145 10.4374 23.6141 10.4374 23.515C10.4374 22.461 10.4361 21.4083 10.4374 20.3543C10.4387 19.1831 11.2016 18.4226 12.3804 18.4213C14.1344 18.42 15.887 18.4187 17.641 18.4213C18.8029 18.4226 19.571 19.1831 19.5736 20.335C19.5762 21.389 19.5736 22.4417 19.5736 23.4957C19.5736 23.5974 19.5736 23.7004 19.5736 23.82C20.4942 23.82 21.394 23.82 22.3316 23.82C22.3316 23.7004 22.3316 23.582 22.3316 23.4636C22.3316 18.5345 22.3316 13.6055 22.3316 8.67646C22.3316 7.90686 22.6616 7.58255 23.4466 7.58255C24.5616 7.58255 25.6765 7.57997 26.7915 7.58255C28.4542 7.58641 29.6369 8.74981 29.6369 10.392C29.6395 15.1331 29.6382 19.8742 29.6369 24.6154C29.6369 25.273 29.2757 25.6321 28.6146 25.6321C24.1169 25.6334 15.6979 25.6334 11.199 25.6321C10.5913 25.6321 10.1714 25.2589 10.1753 24.7299C10.1792 24.1984 10.5939 23.8406 11.2094 23.8393C11.9723 23.8381 16.6551 23.8393 17.4167 23.8393C17.5184 23.8393 17.6214 23.8393 17.7388 23.8393C17.7388 22.6219 17.7388 21.434 17.7388 20.2294C15.9118 20.2294 14.0966 20.2294 12.2513 20.2294C12.2513 20.3427 12.2513 20.4431 12.2513 20.5435C12.2513 21.8986 12.2513 23.2525 12.2513 24.6077C12.2513 25.2936 11.9123 25.6334 11.225 25.6334C7.99491 25.6334 4.76347 25.6256 1.53334 25.6398C0.955648 25.6424 0.557912 25.4532 0.363609 24.9049C0.362305 19.9219 0.362305 14.9349 0.362305 9.94925ZM5.84062 23.8316C5.84062 19.0017 5.84062 14.2001 5.84062 9.37785C4.96691 9.37785 4.11014 9.37785 3.25469 9.37785C2.53355 9.37785 2.18667 9.72017 2.18667 10.4319C2.18667 14.7959 2.18667 19.16 2.18667 23.5253C2.18667 23.6244 2.18667 23.7235 2.18667 23.8316C3.42421 23.8316 4.62264 23.8316 5.84062 23.8316ZM24.1573 23.8226C25.3922 23.8226 26.5959 23.8226 27.81 23.8226C27.8139 23.748 27.8204 23.6926 27.8204 23.6386C27.8204 19.1986 27.8217 14.7599 27.8191 10.3199C27.8191 9.76264 27.4292 9.38299 26.8645 9.38042C26.0351 9.37527 25.2071 9.37913 24.3777 9.38042C24.306 9.38042 24.2329 9.39458 24.1573 9.4023C24.1573 14.2155 24.1573 19.0081 24.1573 23.8226Z" fill="white"/>
<path d="M18.8651 7.1784H11.1712C10.4514 7.1784 9.86719 6.60184 9.86719 5.89145C9.86719 5.18105 10.4514 4.60449 11.1712 4.60449H18.8651C19.585 4.60449 20.1692 5.18105 20.1692 5.89145C20.1692 6.60313 19.585 7.1784 18.8651 7.1784Z" fill="white"/>
<path d="M18.8651 11.6827H11.1712C10.4514 11.6827 9.86719 11.1061 9.86719 10.3957C9.86719 9.68532 10.4514 9.10876 11.1712 9.10876H18.8651C19.585 9.10876 20.1692 9.68532 20.1692 10.3957C20.1692 11.1074 19.585 11.6827 18.8651 11.6827Z" fill="white"/>
<path d="M18.8651 16.1869H11.1712C10.4514 16.1869 9.86719 15.6104 9.86719 14.9C9.86719 14.1896 10.4514 13.613 11.1712 13.613H18.8651C19.585 13.613 20.1692 14.1896 20.1692 14.9C20.1692 15.6117 19.585 16.1869 18.8651 16.1869Z" fill="white"/>
</svg>
