<svg width="29" height="30" viewBox="0 0 29 30" fill="none" xmlns="http://www.w3.org/2000/svg">
<g clip-path="url(#clip0_333_625)">
<path d="M28.67 27.9627L20.3367 19.1568C24.008 14.6017 23.806 7.83918 19.6777 3.52658C17.5014 1.25282 14.588 0 11.4741 0C8.45893 0 5.61038 1.18657 3.45334 3.33835C1.26237 5.52628 0.0356729 8.45505 0.00176167 11.5856C-0.033624 14.7147 1.1282 17.672 3.27051 19.9097C5.44673 22.1834 8.36162 23.4362 11.4756 23.4362C14.1192 23.4362 16.633 22.5252 18.6662 20.8493L26.9789 29.6341C27.2104 29.878 27.517 30.0015 27.8252 30.0015C28.1201 30.0015 28.415 29.8901 28.6435 29.6642C29.1094 29.2019 29.1212 28.44 28.67 27.9627ZM4.9528 18.2292C1.43193 14.5505 1.4968 8.65382 5.09877 5.05797C6.87247 3.28716 9.17401 2.40476 11.4741 2.40325C13.8434 2.40325 16.2099 3.33986 17.9968 5.20705C21.5177 8.88571 21.4528 14.7824 17.8509 18.3783C16.0772 20.1491 13.7756 21.033 11.4756 21.033C9.10619 21.033 6.73978 20.0964 4.9528 18.2292Z" fill="white"/>
</g>
<defs>
<clipPath id="clip0_333_625">
<rect width="29" height="30" fill="white"/>
</clipPath>
</defs>
</svg>
