<svg width="24.000000" height="23.111084" viewBox="0 0 24 23.1111" fill="none" xmlns="http://www.w3.org/2000/svg" xmlns:xlink="http://www.w3.org/1999/xlink">
	<desc>
			Created with Pixso.
	</desc>
	<defs/>
	<path id="Vector" d="M11.9941 0C0.647461 0.209229 -4.14551 11.9128 4.26074 18.4343C4.11621 20.2744 2.98242 22.7873 5.1582 23.0977C6.18652 23.3049 7.91797 21.0543 8.79199 20.4446C15.7441 22.0755 23.0488 18.1129 23.9297 11.5183C24.6982 5.32513 19.0469 -0.00598145 11.9941 0ZM11.9941 19.1211C6.97754 18.7967 9.15723 17.9868 5.57227 21.0703C5.60938 20.3665 6.20898 18.192 5.80371 17.5913C3.2793 15.2196 1.95215 13.9911 1.6875 10.8646C1.33398 2.71814 12.5938 -1.20239 19.1709 4.14679C25.8223 9.71423 21.2344 19.04 11.9941 19.1211Z" fill="#FFFFFF" fill-opacity="1.000000" fill-rule="nonzero"/>
</svg>

