<svg width="50" height="50" viewBox="0 0 50 50" fill="none" xmlns="http://www.w3.org/2000/svg">
<path d="M36.333 32.1396C31.3561 27.35 34.6471 22.9022 32.5683 18.6857C31.6108 16.5645 29.8546 14.8943 27.6248 14.0754C27.6248 14.0754 27.6248 14.0325 27.6248 13.9208C28.0792 8.39413 21.0465 8.95563 21.7736 14.065C14.0472 17.5458 16.6969 23.7613 15.7471 27.9336C15.0776 30.4096 13.9922 31.3117 12.3959 32.9819C11.2208 34.9497 12.8951 36.7031 14.3711 36.7837C14.476 36.8487 19.8535 36.7538 20.692 36.7915C21.3243 38.4539 22.566 40.1891 25.1709 39.9838C28.8766 39.3508 28.2789 36.5303 28.9931 36.7915C29.9199 36.7915 32.9075 36.7915 34.3054 36.7915C35.0542 36.7759 34.7662 36.8292 35.3806 36.7538C37.9638 36.2352 38.0649 33.2951 36.333 32.1396ZM24.6985 11.9425C25.601 11.9412 25.7904 12.8939 25.7098 13.6218C25.039 13.5425 24.358 13.5425 23.6886 13.6218C23.5977 12.8653 23.8051 11.962 24.6985 11.9425ZM24.7408 38.0614C23.8742 38.0614 23.1279 37.5415 22.781 36.7902H26.7006C26.3562 37.5402 25.6087 38.0614 24.7408 38.0614ZM35.5022 34.5754C35.1771 35.1577 30.8863 34.7171 28.5413 34.8471C28.1163 34.8471 27.8552 34.8471 27.8244 34.8471C27.9448 34.8458 14.5515 34.8471 14.5439 34.8471C13.6312 34.6352 13.8078 34.0139 14.6872 33.4043C20.5806 27.5164 15.8124 22.4317 19.5284 17.9565C23.4415 13.3359 30.5382 15.6741 31.3715 21.3476C31.6684 23.5715 31.1667 25.5836 31.712 27.9648C32.3891 29.6688 32.7859 31.6756 35.3256 33.815C35.5611 34.0334 35.7057 34.2583 35.5022 34.5754Z" fill="white"/>
</svg>
