<svg width="20.000000" height="24.000000" viewBox="0 0 20 24" fill="none" xmlns="http://www.w3.org/2000/svg" xmlns:xlink="http://www.w3.org/1999/xlink">
	<desc>
			Created with Pixso.
	</desc>
	<defs/>
	<path id="Vector" d="M19.085 17.7115C15.1816 13.8798 17.7627 10.3216 16.1328 6.94849C15.3818 5.25153 14.0039 3.91541 12.2549 3.26031C12.2549 3.26031 12.2549 3.22601 12.2549 3.13654C12.6113 -1.28467 7.0957 -0.83551 7.66602 3.25201C1.60547 6.03656 3.68359 11.0089 2.93945 14.3467C2.41406 16.3275 1.5625 17.0491 0.310547 18.3853C-0.611328 19.9595 0.702148 21.3622 1.85938 21.4267C1.94238 21.4787 6.16016 21.4028 6.81738 21.433C7.31348 22.7629 8.28711 24.151 10.3301 23.9867C13.2373 23.4803 12.7686 21.2239 13.3281 21.433C14.0557 21.433 16.3984 21.433 17.4951 21.433C18.082 21.4205 17.8564 21.4631 18.3379 21.4028C20.3643 20.9879 20.4434 18.6359 19.085 17.7115ZM9.95996 1.55396C10.668 1.55292 10.8164 2.31512 10.7529 2.8974C10.2266 2.83398 9.69336 2.83398 9.16797 2.8974C9.09668 2.29224 9.25879 1.56958 9.95996 1.55396ZM9.99316 22.4489C9.31348 22.4489 8.72852 22.0329 8.45605 21.4319L11.5303 21.4319C11.2598 22.0319 10.6738 22.4489 9.99316 22.4489ZM18.4336 19.6601C18.1787 20.1259 14.8135 19.7734 12.9736 19.8774C12.6406 19.8774 12.4355 19.8774 12.4121 19.8774C12.5059 19.8763 2.00098 19.8774 1.99512 19.8774C1.2793 19.7079 1.41797 19.2109 2.10742 18.7232C6.73047 14.0129 2.99023 9.94519 5.90527 6.36517C8.97363 2.66864 14.54 4.53925 15.1934 9.078C15.4268 10.8571 15.0332 12.4667 15.4609 14.3716C15.9922 15.7348 16.3027 17.3403 18.2949 19.0518C18.4795 19.2265 18.5938 19.4064 18.4336 19.6601Z" fill="#FFFFFF" fill-opacity="1.000000" fill-rule="nonzero"/>
</svg>
